<svg width="220.00000000000003" height="220.00000000000003" xmlns="http://www.w3.org/2000/svg" version="1.0" preserveAspectRatio="xMidYMid meet">
 <g>
  <title>Layer 1</title>
  <g transform="translate(0.000000,220.000000) scale(0.100000,-0.100000)" fill="#000000" id="svg_1" stroke="null"/>
  <g stroke="null" id="svg_2">
   <g stroke="null" id="svg_3">
    <path fill="#B3B3B3" stroke="null" d="m110.17611,0c30.43113,0 57.97516,12.27211 77.89796,32.10726c19.94073,19.83515 32.27816,47.23335 32.27816,77.48552c0,30.27001 -12.33743,57.66821 -32.27816,77.48552c-19.94073,19.83515 -47.48476,32.10726 -77.89796,32.10726c-30.43113,0 -57.97516,-12.27211 -77.89796,-32.10726c-19.94073,-19.81731 -32.27816,-47.21551 -32.27816,-77.48552c0,-30.27001 12.33743,-57.66821 32.27816,-77.48552c19.9228,-19.83515 47.46682,-32.10726 77.89796,-32.10726l0,0zm-34.32244,70.40409l24.37001,0l0,78.39523l-24.37001,0l0,-78.39523l0,0l0,0zm44.27487,0l24.37001,0l0,78.39523l-24.37001,0l0,-78.39523l0,0l0,0zm54.56802,-24.99015c-16.51566,-16.42821 -39.32556,-26.57768 -64.52045,-26.57768c-25.1949,0 -48.02273,10.1673 -64.52045,26.57768c-16.51566,16.42821 -26.71914,39.11734 -26.71914,64.17884s10.22142,47.76847 26.71914,64.17884c16.51566,16.42821 39.32556,26.57768 64.52045,26.57768c25.1949,0 48.02273,-10.1673 64.52045,-26.57768c16.51566,-16.42821 26.71914,-39.11734 26.71914,-64.17884s-10.20348,-47.76847 -26.71914,-64.17884l0,0z" id="svg_4"/>
   </g>
  </g>
 </g>

</svg>