<svg width="50" height="50" viewBox="0 0 50 50" fill="none" xmlns="http://www.w3.org/2000/svg">
<g filter="url(#filter0_d_2_79)">
<path d="M45.1397 10.8946C43.8196 9.93181 42.9 8.45165 42.5588 7.12476C41.712 4.22201 39.1937 2.07629 36.1385 1.65798L35.4493 1.56314C34.05 1.36831 32.6242 1.56544 31.3303 2.13262C30.0365 2.6998 28.9253 3.61478 28.1204 4.7758L25.5234 8.64641C19.2776 3.65044 15.3807 7.5456 10.4974 1.23375C8.91982 -0.80613 5.68683 -0.210001 4.91881 2.25496C4.14192 4.73098 3.90911 7.34562 4.23631 9.91996C4.262 10.1239 4.33375 10.3193 4.44613 10.4914C4.55851 10.6634 4.70856 10.8077 4.88494 10.9132C9.40163 13.5958 14.3908 14.8499 19.6188 14.0073C19.7998 13.9782 19.9847 13.9861 20.1625 14.0306C20.3403 14.075 20.5073 14.1551 20.6532 14.2659C20.7992 14.3767 20.9212 14.516 21.0118 14.6753C21.1024 14.8347 21.1597 15.0107 21.1803 15.1928C21.2156 15.5438 21.1149 15.895 20.8988 16.1738C20.6828 16.4527 20.368 16.6381 20.0193 16.6916C15.744 17.375 11.3992 16.8483 7.16784 15.0937C7.03654 15.0383 6.89108 15.0256 6.75218 15.0576C6.61328 15.0896 6.48802 15.1646 6.39421 15.2719C6.3004 15.3793 6.24283 15.5134 6.2297 15.6554C6.21657 15.7973 6.24854 15.9397 6.32106 16.0625C8.24494 19.3403 11.3094 21.829 15.4213 23.0306L8.65731 32.7515C8.06675 33.6071 7.80427 34.6469 7.91795 35.6803C8.03163 36.7137 8.51387 37.6716 9.27631 38.3783C9.37079 38.4659 9.48282 38.5323 9.60496 38.5732C9.7271 38.6141 9.85654 38.6286 9.98469 38.6156C10.1128 38.6026 10.2368 38.5625 10.3482 38.498C10.4597 38.4334 10.5561 38.3459 10.6311 38.2412L15.8761 30.9716C15.9834 30.8229 16.1198 30.6975 16.277 30.603C16.4342 30.5085 16.6089 30.4469 16.7906 30.422C16.9723 30.3971 17.1572 30.4093 17.334 30.4579C17.5109 30.5065 17.676 30.5905 17.8194 30.7049C18.391 31.1587 18.4782 31.9962 18.0514 32.5881L12.5813 40.1701C12.5051 40.2753 12.4524 40.3956 12.4266 40.5229C12.4009 40.6502 12.4028 40.7815 12.4322 40.908C12.4616 41.0345 12.5177 41.1532 12.5969 41.2561C12.6761 41.3591 12.7765 41.4438 12.8912 41.5046C13.8024 41.984 14.8553 42.1208 15.8588 41.8902C16.8623 41.6597 17.7499 41.077 18.3605 40.248L21.7239 35.6831C21.9526 35.3695 22.2698 35.1315 22.6348 34.9995C22.9998 34.8674 23.3958 34.8475 23.7722 34.9421C33.1663 37.3224 41.5494 28.1976 38.1386 19.7366C37.49 18.1277 38.1022 15.4943 39.8161 15.1581L44.3954 14.2563C44.7539 14.1857 45.084 14.0122 45.3454 13.7569C45.6068 13.5016 45.7881 13.1756 45.867 12.8189C45.946 12.4621 45.9193 12.0901 45.7901 11.7484C45.6609 11.4066 45.4349 11.1099 45.1397 10.8946ZM35.1148 10.2561C34.8468 10.2561 34.5849 10.1767 34.3621 10.0278C34.1393 9.87892 33.9656 9.66733 33.8631 9.41976C33.7605 9.1722 33.7337 8.89978 33.786 8.63697C33.8382 8.37416 33.9673 8.13275 34.1568 7.94327C34.3462 7.75379 34.5876 7.62476 34.8505 7.57248C35.1133 7.52021 35.3857 7.54704 35.6333 7.64958C35.8808 7.75212 36.0924 7.92578 36.2413 8.14858C36.3902 8.37138 36.4696 8.63333 36.4696 8.90129C36.4696 9.26061 36.3269 9.60522 36.0728 9.8593C35.8187 10.1134 35.4741 10.2561 35.1148 10.2561Z" fill="white"/>
</g>
<defs>
<filter id="filter0_d_2_79" x="0" y="0" width="50" height="50" filterUnits="userSpaceOnUse" color-interpolation-filters="sRGB">
<feFlood flood-opacity="0" result="BackgroundImageFix"/>
<feColorMatrix in="SourceAlpha" type="matrix" values="0 0 0 0 0 0 0 0 0 0 0 0 0 0 0 0 0 0 127 0" result="hardAlpha"/>
<feOffset dy="4"/>
<feGaussianBlur stdDeviation="2"/>
<feComposite in2="hardAlpha" operator="out"/>
<feColorMatrix type="matrix" values="0 0 0 0 0 0 0 0 0 0 0 0 0 0 0 0 0 0 0.25 0"/>
<feBlend mode="normal" in2="BackgroundImageFix" result="effect1_dropShadow_2_79"/>
<feBlend mode="normal" in="SourceGraphic" in2="effect1_dropShadow_2_79" result="shape"/>
</filter>
</defs>
</svg>
